<svg xmlns="http://www.w3.org/2000/svg" width="130.14" height="104.95" viewBox="0 0 130.14 104.95">
  <g>
    <path d="M63.11,79.8H13.61A11.61,11.61,0,0,1,2,68.19H2V13.61A11.61,11.61,0,0,1,13.61,2H116.52a11.61,11.61,0,0,1,11.62,11.6V68.19a11.569,11.569,0,0,1-3.4,8.21" fill="none" stroke="#fff" stroke-linecap="round" stroke-linejoin="round" stroke-width="4"/>
    <polygon points="77.94 31.16 71.3 73.56 84.14 67.7 100.25 102.95 117.63 95.01 101.52 59.75 114.36 53.89 77.94 31.16" fill="none" stroke="#fff" stroke-linecap="round" stroke-linejoin="round" stroke-width="4"/>
    <path d="M16.54,22.49v36H29.09c19.42,0,19.42-19.42,0-19.42,18.32,0,18.32-16.7,0-16.7Z" fill="none" stroke="#fff" stroke-linecap="round" stroke-linejoin="round" stroke-width="4"/>
    <path d="M53.49,22.37V46A12.5,12.5,0,0,0,66,58.49h5.3" fill="none" stroke="#fff" stroke-linecap="round" stroke-linejoin="round" stroke-width="4"/>
    <line x1="78.95" y1="21.78" x2="78.95" y2="31.16" fill="none" stroke="#fff" stroke-linecap="round" stroke-linejoin="round" stroke-width="4"/>
    <polyline points="91.62 22.37 105.83 33.74 118.01 21.56" fill="none" stroke="#fff" stroke-linecap="round" stroke-linejoin="round" stroke-width="4"/>
    <line x1="105.59" y1="46.29" x2="105.59" y2="34.57" fill="none" stroke="#fff" stroke-linecap="round" stroke-linejoin="round" stroke-width="4"/>
  </g>
</svg>
