<svg width="131" height="77" viewBox="0 0 131 77" fill="none" xmlns="http://www.w3.org/2000/svg">
<path d="M56.0435 55C53.2001 55 50.9766 54.4046 49.3731 53.2137C47.791 52.0046 47 50.2824 47 48.0473C47 46.655 47.3635 45.4275 48.0904 44.3649C48.8173 43.3023 49.8542 42.4779 51.2011 41.8916C52.5694 41.287 54.1621 40.9847 55.9794 40.9847C57.3263 40.9847 58.4701 41.0947 59.4108 41.3145C60.3515 41.5344 61.2281 41.8916 62.0405 42.3863C62.2329 42.4962 62.3291 42.6153 62.3291 42.7435C62.3291 42.8534 62.2757 42.9817 62.1688 43.1282L61.3029 44.4198C61.1746 44.6031 61.057 44.6947 60.9501 44.6947C60.8432 44.6947 60.6936 44.6397 60.5012 44.5298C59.8384 44.1817 59.1756 43.9252 58.5129 43.7603C57.8715 43.5771 57.1018 43.4855 56.2039 43.4855C54.6004 43.4855 53.339 43.8977 52.4197 44.7221C51.5004 45.5282 51.0407 46.6366 51.0407 48.0473C51.0407 49.5313 51.5004 50.6489 52.4197 51.4C53.339 52.1328 54.6859 52.4992 56.4604 52.4992C57.3584 52.4992 58.1387 52.4076 58.8015 52.2244C59.4643 52.0412 60.1056 51.7756 60.7256 51.4275C60.8967 51.3359 61.0357 51.2901 61.1426 51.2901C61.2708 51.2901 61.3991 51.3817 61.5274 51.5649L62.4574 52.9115C62.5429 53.0031 62.5857 53.1038 62.5857 53.2137C62.5857 53.342 62.4788 53.4702 62.265 53.5985C61.4098 54.0748 60.4905 54.4229 59.507 54.6427C58.5236 54.8809 57.3691 55 56.0435 55Z" fill="white"/>
<path d="M71.9957 55C69.9006 55 68.233 54.4595 66.9929 53.3786C65.7529 52.2794 65.1329 50.7405 65.1329 48.7618C65.1329 47.2229 65.5284 45.8672 66.3195 44.6947C67.1105 43.5038 68.233 42.5878 69.6868 41.9466C71.1619 41.3053 72.8723 40.9847 74.8178 40.9847C77.533 40.9847 79.8313 41.5344 81.7127 42.6336V53.8458C81.7127 54.1206 81.6379 54.313 81.4882 54.4229C81.36 54.5328 81.1248 54.5878 80.7827 54.5878H79.0189C78.7837 54.5878 78.602 54.5511 78.4737 54.4779C78.3668 54.3863 78.292 54.2489 78.2493 54.0656L77.9927 52.9939C77.3299 53.6901 76.5068 54.2031 75.5234 54.5328C74.5613 54.8443 73.3854 55 71.9957 55ZM73.5351 52.4992C74.6682 52.4992 75.6623 52.2153 76.5175 51.6473C77.3941 51.0794 77.8324 50.3282 77.8324 49.3939V44.0351C77.3834 43.8336 76.9237 43.6962 76.4534 43.6229C76.0044 43.5313 75.4485 43.4855 74.7858 43.4855C73.0968 43.4855 71.7392 43.9435 70.713 44.8595C69.6868 45.7756 69.1737 47.0397 69.1737 48.6519C69.1737 49.971 69.5264 50.942 70.2319 51.5649C70.9588 52.1878 72.0599 52.4992 73.5351 52.4992Z" fill="white"/>
<path d="M86.7231 54.5878C86.2955 54.5878 85.9855 54.5053 85.793 54.3405C85.6006 54.1756 85.5044 53.9282 85.5044 53.5985V42.1389C85.5044 41.8641 85.5579 41.6718 85.6648 41.5618C85.7717 41.4519 85.9962 41.3969 86.3382 41.3969H88.1662C88.4013 41.3969 88.5724 41.4427 88.6793 41.5344C88.7862 41.6076 88.8503 41.745 88.8717 41.9466L88.9679 42.9359C90.2293 41.6351 91.8862 40.9847 93.9386 40.9847C94.8793 40.9847 95.5956 41.1221 96.0873 41.3969C96.2156 41.4702 96.2904 41.5527 96.3118 41.6443C96.3545 41.7176 96.3545 41.8092 96.3118 41.9191L95.7345 43.5679C95.6704 43.7511 95.5528 43.8427 95.3818 43.8427L95.1252 43.7878C94.6121 43.5863 94.0242 43.4855 93.3614 43.4855C92.271 43.4855 91.3731 43.7511 90.6676 44.2824C89.9621 44.7954 89.6093 45.5008 89.6093 46.3985V53.5985C89.6093 53.9282 89.5131 54.1756 89.3207 54.3405C89.1496 54.5053 88.8396 54.5878 88.3907 54.5878H86.7231Z" fill="white"/>
<path d="M105.933 55C104.116 55 102.748 54.5695 101.828 53.7084C100.909 52.8473 100.449 51.6565 100.449 50.1359V43.9802H98.6213C98.1937 43.9802 97.905 43.916 97.7554 43.7878C97.6271 43.6595 97.563 43.4214 97.563 43.0733V42.3313C97.563 41.9832 97.6271 41.745 97.7554 41.6168C97.905 41.4702 98.1937 41.3969 98.6213 41.3969H100.449V39.8855C100.449 39.5008 100.524 39.1435 100.674 38.8137C100.845 38.4656 101.101 38.0351 101.443 37.5221C101.572 37.3023 101.689 37.1649 101.796 37.1099C101.924 37.0366 102.138 37 102.438 37H103.496C103.881 37 104.148 37.0824 104.298 37.2473C104.469 37.3939 104.554 37.6229 104.554 37.9344V41.3969H108.338C108.766 41.3969 109.044 41.4702 109.172 41.6168C109.322 41.745 109.397 41.9832 109.397 42.3313V43.0733C109.397 43.4214 109.322 43.6595 109.172 43.7878C109.044 43.916 108.766 43.9802 108.338 43.9802H104.554V50.026C104.554 50.8687 104.725 51.4824 105.067 51.8672C105.409 52.2336 105.997 52.4168 106.831 52.4168C107.323 52.4168 107.74 52.371 108.082 52.2794C108.424 52.1695 108.798 51.9954 109.204 51.7573C109.311 51.684 109.429 51.6473 109.557 51.6473C109.685 51.6473 109.813 51.7298 109.942 51.8947L110.872 53.2137C110.957 53.3053 111 53.4061 111 53.516C111 53.6443 110.893 53.7725 110.679 53.9008C109.354 54.6336 107.772 55 105.933 55Z" fill="white"/>
<path d="M43 72.5C43 74.9853 40.7614 77 38 77C35.2386 77 33 74.9853 33 72.5C33 70.0147 35.2386 68 38 68C40.7614 68 43 70.0147 43 72.5Z" fill="white"/>
<path d="M78 72.5C78 74.9853 75.7614 77 73 77C70.2386 77 68 74.9853 68 72.5C68 70.0147 70.2386 68 73 68C75.7614 68 78 70.0147 78 72.5Z" fill="white"/>
<path d="M48.3958 32.0184C46.2366 32.0184 44.2906 31.7005 42.5579 31.0645C40.8519 30.405 39.4924 29.4275 38.4794 28.1321C37.4931 26.8131 37 25.1879 37 23.2565C37 20.2417 37.933 17.9452 39.799 16.3671C41.6916 14.789 44.3839 14 47.876 14C51.3147 14 53.9137 14.7655 55.673 16.2965C57.459 17.8274 58.352 20.0061 58.352 22.8326C58.352 23.8218 57.8456 24.3164 56.8326 24.3164H43.2377C43.2377 25.5883 43.7708 26.5776 44.8371 27.2842C45.93 27.9672 47.4228 28.3088 49.3154 28.3088C50.435 28.3088 51.408 28.2145 52.2343 28.0261C53.0607 27.8141 53.8604 27.5197 54.6334 27.1429C54.9 27.0251 55.0866 26.9662 55.1932 26.9662C55.3798 26.9662 55.5531 27.0957 55.713 27.3548L56.8726 29.2627C56.9792 29.4275 57.0325 29.5689 57.0325 29.6866C57.0325 29.8751 56.8859 30.0635 56.5927 30.2519C55.5264 30.8643 54.3269 31.3118 52.994 31.5945C51.6612 31.8771 50.1284 32.0184 48.3958 32.0184ZM52.4343 21.278C52.4343 20.1004 52.0611 19.1818 51.3147 18.5223C50.5683 17.8628 49.4354 17.533 47.9159 17.533C46.3965 17.533 45.2369 17.8746 44.4372 18.5576C43.6375 19.2171 43.2377 20.1239 43.2377 21.278H52.4343Z" fill="white"/>
<path d="M70.8555 32.0184C68.2965 32.0184 66.2439 31.3118 64.6978 29.8986C63.1784 28.4854 62.4187 26.4951 62.4187 23.9278C62.4187 21.9493 62.9385 20.2181 63.9781 18.7343C65.0177 17.2268 66.4705 16.0609 68.3365 15.2366C70.2024 14.4122 72.3616 14 74.814 14C76.7067 14 78.3727 14.1884 79.8122 14.5653C81.2783 14.9421 82.6111 15.4839 83.8107 16.1905V30.4639C83.8107 30.8643 83.7174 31.1352 83.5308 31.2765C83.3709 31.4178 83.0376 31.4885 82.5312 31.4885H79.3723C79.0791 31.4885 78.8525 31.4414 78.6926 31.3472C78.5593 31.2529 78.4527 31.0998 78.3727 30.8879L77.9329 29.6513C77.1332 30.4757 76.1602 31.0763 75.014 31.4531C73.8677 31.83 72.4816 32.0184 70.8555 32.0184ZM73.2946 27.9908C74.4675 27.9908 75.4805 27.6964 76.3335 27.1075C77.2132 26.5187 77.653 25.7179 77.653 24.7051V18.5223C76.8533 18.169 75.8936 17.9923 74.7741 17.9923C73.0147 17.9923 71.6019 18.5105 70.5356 19.5469C69.496 20.5597 68.9762 21.9846 68.9762 23.8218C68.9762 25.235 69.3361 26.2832 70.0558 26.9662C70.7755 27.6493 71.8551 27.9908 73.2946 27.9908Z" fill="white"/>
<path d="M97.2776 32.0184C95.5715 32.0184 93.9455 31.8653 92.3994 31.5591C90.8533 31.2529 89.4938 30.8054 88.3209 30.2166C87.8944 30.0046 87.6811 29.7926 87.6811 29.5806C87.6811 29.4629 87.7478 29.3098 87.8811 29.1214L89.2805 26.9309C89.4405 26.6953 89.6004 26.5776 89.7604 26.5776C89.9469 26.5776 90.1469 26.6365 90.3601 26.7542C91.1332 27.1546 92.0928 27.4962 93.2391 27.7788C94.412 28.0614 95.4782 28.2028 96.4379 28.2028C97.6108 28.2028 98.4504 28.0968 98.9569 27.8848C99.4901 27.6493 99.7566 27.2606 99.7566 26.7189C99.7566 26.3656 99.5834 26.0712 99.2368 25.8356C98.9169 25.5765 98.4638 25.3646 97.8773 25.1997C97.2909 25.0113 96.2779 24.7286 94.8385 24.3518C92.626 23.7629 91.0132 23.0917 90.0003 22.3379C88.9873 21.5842 88.4808 20.5125 88.4808 19.1229C88.4808 17.4506 89.2672 16.1787 90.84 15.3072C92.4394 14.4357 94.5719 14 97.2376 14C100.383 14 103.062 14.5653 105.275 15.6959C105.701 15.9078 105.914 16.1316 105.914 16.3671C105.914 16.5084 105.834 16.6851 105.674 16.8971L104.315 18.8049C104.155 19.0405 103.995 19.1582 103.835 19.1582C103.702 19.1582 103.515 19.0876 103.275 18.9462C102.609 18.6165 101.823 18.3456 100.916 18.1336C100.01 17.9217 99.1035 17.8157 98.1972 17.8157C97.0776 17.8157 96.2379 17.9334 95.6782 18.169C95.1184 18.381 94.8385 18.7696 94.8385 19.3349C94.8385 19.8059 95.145 20.1828 95.7581 20.4654C96.3979 20.7245 97.4508 21.0307 98.9169 21.384L101.116 21.9493C102.476 22.3497 103.529 22.7619 104.275 23.1859C105.021 23.6098 105.554 24.1045 105.874 24.6697C106.194 25.235 106.354 25.9534 106.354 26.8249C106.354 28.3323 105.581 29.5806 104.035 30.5699C102.489 31.5356 100.236 32.0184 97.2776 32.0184Z" fill="white"/>
<path d="M114.566 37C112.38 37 110.581 36.47 109.168 35.4101C108.928 35.2453 108.808 35.0686 108.808 34.8802C108.808 34.7624 108.875 34.5858 109.008 34.3502L110.368 32.2657C110.528 32.0067 110.714 31.8771 110.927 31.8771C111.114 31.8771 111.327 31.9478 111.567 32.0891C111.994 32.3482 112.407 32.5366 112.807 32.6544C113.207 32.7957 113.673 32.8664 114.206 32.8664C114.899 32.8664 115.432 32.6779 115.806 32.3011C116.206 31.9478 116.579 31.3589 116.925 30.5346L109.008 15.6959C108.902 15.5074 108.848 15.319 108.848 15.1306C108.848 14.7302 109.088 14.53 109.568 14.53H114.206C114.579 14.53 114.859 14.5888 115.046 14.7066C115.233 14.8244 115.392 15.0246 115.526 15.3072L119.924 24.8817L124.322 15.3072C124.456 15.0246 124.616 14.8244 124.802 14.7066C124.989 14.5888 125.269 14.53 125.642 14.53H130.28C130.76 14.53 131 14.7302 131 15.1306C131 15.319 130.947 15.5074 130.84 15.6959L123.363 29.7573C122.377 31.5945 121.497 33.0077 120.724 33.9969C119.977 35.0097 119.111 35.7634 118.125 36.2581C117.165 36.7527 115.979 37 114.566 37Z" fill="white"/>
<path fill-rule="evenodd" clip-rule="evenodd" d="M0.0236559 1.89315C0.211938 0.693979 1.4734 -0.144329 2.84121 0.0207394C9.56763 0.832491 14.7843 2.34442 18.9352 4.9625C23.1092 7.59509 25.9738 11.1994 28.2893 15.8227L28.3367 15.9174L43.183 55.2724L40.9027 59.6165H93.5C94.8807 59.6165 96 60.5977 96 61.8082C96 63.0187 94.8807 64 93.5 64H33.0976L37.8173 55.0089L23.6642 17.4916C21.5908 13.3798 19.2171 10.5404 16.0153 8.52088C12.7662 6.47164 8.43291 5.12043 2.15938 4.36333C0.791571 4.19827 -0.164625 3.09233 0.0236559 1.89315Z" fill="white"/>
</svg>
