<svg width="266" height="32" viewBox="0 0 266 32" fill="none" xmlns="http://www.w3.org/2000/svg">
<path d="M0.420456 6.98012V1.90909H24.3125V6.98012H15.4063V31H9.32671V6.98012H0.420456Z" fill="white"/>
<path d="M31.3864 31.4119C29.9943 31.4119 28.7538 31.1705 27.6648 30.6875C26.5758 30.1951 25.714 29.4706 25.0795 28.5142C24.4545 27.5483 24.142 26.3456 24.142 24.9063C24.142 23.6941 24.3646 22.6761 24.8097 21.8523C25.2547 21.0284 25.8608 20.3655 26.6278 19.8636C27.3949 19.3617 28.2661 18.983 29.2415 18.7273C30.2263 18.4716 31.2585 18.2917 32.3381 18.1875C33.607 18.0549 34.6297 17.9318 35.4062 17.8182C36.1828 17.6951 36.7462 17.5152 37.0966 17.2784C37.447 17.0417 37.6222 16.6913 37.6222 16.2273V16.142C37.6222 15.2424 37.3381 14.5464 36.7699 14.054C36.2112 13.5616 35.4157 13.3153 34.3835 13.3153C33.2945 13.3153 32.428 13.5568 31.7841 14.0398C31.1402 14.5133 30.714 15.1099 30.5057 15.8295L24.9091 15.375C25.1932 14.0492 25.7519 12.9034 26.5852 11.9375C27.4186 10.9621 28.4934 10.214 29.8097 9.69318C31.1354 9.16288 32.6695 8.89773 34.4119 8.89773C35.6241 8.89773 36.7841 9.03978 37.892 9.32387C39.0095 9.60796 39.9991 10.0483 40.8608 10.6449C41.732 11.2415 42.4186 12.0085 42.9205 12.946C43.4223 13.8741 43.6733 14.9867 43.6733 16.2841V31H37.9347V27.9744H37.7642C37.4138 28.6563 36.9451 29.2576 36.358 29.7784C35.7708 30.2898 35.0653 30.6922 34.2415 30.9858C33.4176 31.2699 32.4659 31.4119 31.3864 31.4119ZM33.1193 27.2358C34.0095 27.2358 34.7955 27.0606 35.4773 26.7102C36.1591 26.3504 36.6941 25.8674 37.0824 25.2614C37.4706 24.6553 37.6648 23.9688 37.6648 23.2017V20.8864C37.4754 21.0095 37.215 21.1231 36.8835 21.2273C36.5616 21.322 36.197 21.4119 35.7898 21.4972C35.3826 21.5729 34.9754 21.6439 34.5682 21.7102C34.161 21.767 33.7917 21.8191 33.4602 21.8665C32.75 21.9706 32.1297 22.1364 31.5994 22.3636C31.0691 22.5909 30.6572 22.8987 30.3636 23.2869C30.0701 23.6657 29.9233 24.1392 29.9233 24.7074C29.9233 25.5313 30.2216 26.161 30.8182 26.5966C31.4242 27.0227 32.1913 27.2358 33.1193 27.2358Z" fill="white"/>
<path d="M48.3679 31V9.18182H54.1349V13.0313H54.3906C54.8452 11.7528 55.6027 10.7443 56.6634 10.0057C57.724 9.26705 58.9929 8.89773 60.4702 8.89773C61.9664 8.89773 63.2401 9.27178 64.2912 10.0199C65.3423 10.7585 66.0431 11.7623 66.3935 13.0313H66.6207C67.0658 11.7813 67.8707 10.7822 69.0355 10.0341C70.2098 9.27652 71.5971 8.89773 73.1974 8.89773C75.2334 8.89773 76.8859 9.54641 78.1548 10.8438C79.4332 12.1316 80.0724 13.9593 80.0724 16.3267V31H74.0355V17.5199C74.0355 16.3078 73.7135 15.3987 73.0696 14.7926C72.4257 14.1866 71.6207 13.8835 70.6548 13.8835C69.5563 13.8835 68.6993 14.2339 68.0838 14.9347C67.4683 15.6259 67.1605 16.5398 67.1605 17.6761V31H61.294V17.392C61.294 16.322 60.9863 15.4697 60.3707 14.8352C59.7647 14.2008 58.9645 13.8835 57.9702 13.8835C57.2978 13.8835 56.6918 14.054 56.152 14.3949C55.6217 14.7263 55.2003 15.1951 54.8878 15.8011C54.5753 16.3977 54.419 17.0985 54.419 17.9034V31H48.3679Z" fill="white"/>
<path d="M84.9659 31V1.90909H91.017V12.8466H91.2017C91.4669 12.2595 91.8504 11.6629 92.3523 11.0568C92.8636 10.4413 93.5265 9.92993 94.3409 9.52273C95.1648 9.10607 96.1875 8.89773 97.4091 8.89773C99 8.89773 100.468 9.3144 101.812 10.1477C103.157 10.9716 104.232 12.2169 105.037 13.8835C105.842 15.5407 106.244 17.6193 106.244 20.1193C106.244 22.553 105.851 24.608 105.065 26.2841C104.289 27.9508 103.228 29.215 101.884 30.0767C100.548 30.929 99.0521 31.3551 97.3949 31.3551C96.2206 31.3551 95.2216 31.161 94.3977 30.7727C93.5833 30.3845 92.9157 29.8968 92.3949 29.3097C91.8741 28.7131 91.4763 28.1117 91.2017 27.5057H90.9318V31H84.9659ZM90.8892 20.0909C90.8892 21.3883 91.0691 22.5199 91.429 23.4858C91.7888 24.4517 92.3097 25.2046 92.9915 25.7443C93.6733 26.2746 94.5019 26.5398 95.4773 26.5398C96.4621 26.5398 97.2955 26.2699 97.9773 25.7301C98.6591 25.1809 99.1752 24.4233 99.5256 23.4574C99.8854 22.482 100.065 21.3599 100.065 20.0909C100.065 18.8314 99.8902 17.7235 99.5398 16.767C99.1894 15.8106 98.6733 15.0625 97.9915 14.5227C97.3097 13.983 96.4716 13.7131 95.4773 13.7131C94.4924 13.7131 93.6591 13.9735 92.9773 14.4943C92.3049 15.0152 91.7888 15.7538 91.429 16.7102C91.0691 17.6667 90.8892 18.7936 90.8892 20.0909Z" fill="white"/>
<path d="M116.504 31.4119C115.112 31.4119 113.871 31.1705 112.782 30.6875C111.693 30.1951 110.831 29.4706 110.197 28.5142C109.572 27.5483 109.259 26.3456 109.259 24.9063C109.259 23.6941 109.482 22.6761 109.927 21.8523C110.372 21.0284 110.978 20.3655 111.745 19.8636C112.512 19.3617 113.383 18.983 114.359 18.7273C115.344 18.4716 116.376 18.2917 117.455 18.1875C118.724 18.0549 119.747 17.9318 120.523 17.8182C121.3 17.6951 121.863 17.5152 122.214 17.2784C122.564 17.0417 122.739 16.6913 122.739 16.2273V16.142C122.739 15.2424 122.455 14.5464 121.887 14.054C121.328 13.5616 120.533 13.3153 119.501 13.3153C118.412 13.3153 117.545 13.5568 116.901 14.0398C116.257 14.5133 115.831 15.1099 115.623 15.8295L110.026 15.375C110.31 14.0492 110.869 12.9034 111.702 11.9375C112.536 10.9621 113.611 10.214 114.927 9.69318C116.253 9.16288 117.787 8.89773 119.529 8.89773C120.741 8.89773 121.901 9.03978 123.009 9.32387C124.127 9.60796 125.116 10.0483 125.978 10.6449C126.849 11.2415 127.536 12.0085 128.038 12.946C128.54 13.8741 128.79 14.9867 128.79 16.2841V31H123.052V27.9744H122.881C122.531 28.6563 122.062 29.2576 121.475 29.7784C120.888 30.2898 120.183 30.6922 119.359 30.9858C118.535 31.2699 117.583 31.4119 116.504 31.4119ZM118.237 27.2358C119.127 27.2358 119.913 27.0606 120.594 26.7102C121.276 26.3504 121.811 25.8674 122.2 25.2614C122.588 24.6553 122.782 23.9688 122.782 23.2017V20.8864C122.593 21.0095 122.332 21.1231 122.001 21.2273C121.679 21.322 121.314 21.4119 120.907 21.4972C120.5 21.5729 120.093 21.6439 119.685 21.7102C119.278 21.767 118.909 21.8191 118.577 21.8665C117.867 21.9706 117.247 22.1364 116.717 22.3636C116.186 22.5909 115.774 22.8987 115.481 23.2869C115.187 23.6657 115.04 24.1392 115.04 24.7074C115.04 25.5313 115.339 26.161 115.935 26.5966C116.541 27.0227 117.308 27.2358 118.237 27.2358Z" fill="white"/>
<path d="M151.638 15.4034L146.099 15.7443C146.004 15.2708 145.8 14.8447 145.488 14.4659C145.175 14.0777 144.763 13.7699 144.252 13.5426C143.75 13.3059 143.149 13.1875 142.448 13.1875C141.511 13.1875 140.72 13.3864 140.076 13.7841C139.432 14.1724 139.11 14.6932 139.11 15.3466C139.11 15.8674 139.318 16.3078 139.735 16.6676C140.152 17.0275 140.867 17.3163 141.88 17.5341L145.829 18.3295C147.95 18.7652 149.531 19.4659 150.573 20.4318C151.615 21.3977 152.136 22.6667 152.136 24.2386C152.136 25.6686 151.714 26.9233 150.871 28.0028C150.038 29.0824 148.892 29.9252 147.434 30.5313C145.985 31.1278 144.314 31.4261 142.42 31.4261C139.531 31.4261 137.23 30.8248 135.516 29.6222C133.812 28.41 132.813 26.7623 132.519 24.679L138.471 24.3665C138.651 25.2472 139.086 25.9195 139.778 26.3835C140.469 26.8381 141.354 27.0653 142.434 27.0653C143.495 27.0653 144.347 26.8617 144.991 26.4545C145.644 26.0379 145.976 25.5028 145.985 24.8494C145.976 24.3002 145.744 23.8504 145.289 23.5C144.835 23.1402 144.134 22.8655 143.187 22.6761L139.408 21.9233C137.278 21.4972 135.692 20.7585 134.65 19.7074C133.618 18.6563 133.102 17.3163 133.102 15.6875C133.102 14.286 133.48 13.0786 134.238 12.0653C135.005 11.0521 136.08 10.2708 137.462 9.72159C138.854 9.17235 140.483 8.89773 142.349 8.89773C145.104 8.89773 147.273 9.48012 148.854 10.6449C150.445 11.8097 151.373 13.3958 151.638 15.4034Z" fill="white"/>
<path d="M162.168 31.4119C160.776 31.4119 159.535 31.1705 158.446 30.6875C157.357 30.1951 156.495 29.4706 155.861 28.5142C155.236 27.5483 154.923 26.3456 154.923 24.9063C154.923 23.6941 155.146 22.6761 155.591 21.8523C156.036 21.0284 156.642 20.3655 157.409 19.8636C158.176 19.3617 159.047 18.983 160.023 18.7273C161.008 18.4716 162.04 18.2917 163.119 18.1875C164.388 18.0549 165.411 17.9318 166.188 17.8182C166.964 17.6951 167.527 17.5152 167.878 17.2784C168.228 17.0417 168.403 16.6913 168.403 16.2273V16.142C168.403 15.2424 168.119 14.5464 167.551 14.054C166.992 13.5616 166.197 13.3153 165.165 13.3153C164.076 13.3153 163.209 13.5568 162.565 14.0398C161.921 14.5133 161.495 15.1099 161.287 15.8295L155.69 15.375C155.974 14.0492 156.533 12.9034 157.366 11.9375C158.2 10.9621 159.275 10.214 160.591 9.69318C161.917 9.16288 163.451 8.89773 165.193 8.89773C166.405 8.89773 167.565 9.03978 168.673 9.32387C169.791 9.60796 170.78 10.0483 171.642 10.6449C172.513 11.2415 173.2 12.0085 173.702 12.946C174.204 13.8741 174.455 14.9867 174.455 16.2841V31H168.716V27.9744H168.545C168.195 28.6563 167.726 29.2576 167.139 29.7784C166.552 30.2898 165.847 30.6922 165.023 30.9858C164.199 31.2699 163.247 31.4119 162.168 31.4119ZM163.901 27.2358C164.791 27.2358 165.577 27.0606 166.259 26.7102C166.94 26.3504 167.475 25.8674 167.864 25.2614C168.252 24.6553 168.446 23.9688 168.446 23.2017V20.8864C168.257 21.0095 167.996 21.1231 167.665 21.2273C167.343 21.322 166.978 21.4119 166.571 21.4972C166.164 21.5729 165.757 21.6439 165.349 21.7102C164.942 21.767 164.573 21.8191 164.241 21.8665C163.531 21.9706 162.911 22.1364 162.381 22.3636C161.85 22.5909 161.438 22.8987 161.145 23.2869C160.851 23.6657 160.705 24.1392 160.705 24.7074C160.705 25.5313 161.003 26.161 161.599 26.5966C162.205 27.0227 162.973 27.2358 163.901 27.2358Z" fill="white"/>
<path d="M179.263 31V1.90909H198.524V6.98012H185.413V13.9119H197.246V18.983H185.413V31H179.263Z" fill="#80E2F8"/>
<path d="M208.496 31.4119C207.104 31.4119 205.863 31.1705 204.774 30.6875C203.685 30.1951 202.823 29.4706 202.189 28.5142C201.564 27.5483 201.251 26.3456 201.251 24.9063C201.251 23.6941 201.474 22.6761 201.919 21.8523C202.364 21.0284 202.97 20.3655 203.737 19.8636C204.504 19.3617 205.375 18.983 206.351 18.7273C207.336 18.4716 208.368 18.2917 209.447 18.1875C210.716 18.0549 211.739 17.9318 212.516 17.8182C213.292 17.6951 213.856 17.5152 214.206 17.2784C214.556 17.0417 214.732 16.6913 214.732 16.2273V16.142C214.732 15.2424 214.447 14.5464 213.879 14.054C213.321 13.5616 212.525 13.3153 211.493 13.3153C210.404 13.3153 209.537 13.5568 208.893 14.0398C208.25 14.5133 207.823 15.1099 207.615 15.8295L202.018 15.375C202.303 14.0492 202.861 12.9034 203.695 11.9375C204.528 10.9621 205.603 10.214 206.919 9.69318C208.245 9.16288 209.779 8.89773 211.521 8.89773C212.733 8.89773 213.893 9.03978 215.001 9.32387C216.119 9.60796 217.108 10.0483 217.97 10.6449C218.841 11.2415 219.528 12.0085 220.03 12.946C220.532 13.8741 220.783 14.9867 220.783 16.2841V31H215.044V27.9744H214.874C214.523 28.6563 214.054 29.2576 213.467 29.7784C212.88 30.2898 212.175 30.6922 211.351 30.9858C210.527 31.2699 209.575 31.4119 208.496 31.4119ZM210.229 27.2358C211.119 27.2358 211.905 27.0606 212.587 26.7102C213.268 26.3504 213.803 25.8674 214.192 25.2614C214.58 24.6553 214.774 23.9688 214.774 23.2017V20.8864C214.585 21.0095 214.324 21.1231 213.993 21.2273C213.671 21.322 213.306 21.4119 212.899 21.4972C212.492 21.5729 212.085 21.6439 211.678 21.7102C211.27 21.767 210.901 21.8191 210.57 21.8665C209.859 21.9706 209.239 22.1364 208.709 22.3636C208.178 22.5909 207.767 22.8987 207.473 23.2869C207.179 23.6657 207.033 24.1392 207.033 24.7074C207.033 25.5313 207.331 26.161 207.928 26.5966C208.534 27.0227 209.301 27.2358 210.229 27.2358Z" fill="#80E2F8"/>
<path d="M235.335 31.4261C233.1 31.4261 231.178 30.9527 229.568 30.0057C227.968 29.0492 226.737 27.7235 225.875 26.0284C225.023 24.3333 224.597 22.3826 224.597 20.1761C224.597 17.9413 225.027 15.9811 225.889 14.2955C226.76 12.6004 227.996 11.2794 229.597 10.3324C231.197 9.37595 233.1 8.89773 235.307 8.89773C237.21 8.89773 238.877 9.24338 240.307 9.93466C241.737 10.626 242.868 11.5966 243.702 12.8466C244.535 14.0966 244.994 15.5644 245.08 17.25H239.369C239.208 16.161 238.782 15.285 238.091 14.6222C237.409 13.9498 236.514 13.6136 235.406 13.6136C234.469 13.6136 233.65 13.8693 232.949 14.3807C232.258 14.8826 231.718 15.6165 231.33 16.5824C230.941 17.5483 230.747 18.7178 230.747 20.0909C230.747 21.483 230.937 22.6667 231.315 23.642C231.704 24.6174 232.248 25.3608 232.949 25.8722C233.65 26.3835 234.469 26.6392 235.406 26.6392C236.098 26.6392 236.718 26.4972 237.267 26.2131C237.826 25.929 238.285 25.517 238.645 24.9773C239.014 24.428 239.256 23.7699 239.369 23.0028H245.08C244.985 24.6695 244.53 26.1373 243.716 27.4063C242.911 28.6657 241.798 29.6506 240.378 30.3608C238.957 31.071 237.277 31.4261 235.335 31.4261Z" fill="#80E2F8"/>
<path d="M248.954 31V9.18182H255.005V31H248.954ZM251.994 6.36932C251.094 6.36932 250.322 6.07103 249.678 5.47443C249.044 4.86837 248.727 4.14394 248.727 3.30114C248.727 2.46781 249.044 1.75284 249.678 1.15625C250.322 0.550192 251.094 0.247162 251.994 0.247162C252.893 0.247162 253.66 0.550192 254.295 1.15625C254.939 1.75284 255.261 2.46781 255.261 3.30114C255.261 4.14394 254.939 4.86837 254.295 5.47443C253.66 6.07103 252.893 6.36932 251.994 6.36932Z" fill="#80E2F8"/>
<path d="M265.903 1.90909V31H259.852V1.90909H265.903Z" fill="#80E2F8"/>
</svg>
